<svg fill="none" height="64" viewBox="0 0 64 64" width="64" xmlns="http://www.w3.org/2000/svg"><path d="m57.7562 31.9482c0-3.9769 2.4626-7.1218 6.14-9.285-.6656-2.213-1.5475-4.3596-2.6291-6.3563-4.1432 1.0816-7.4878-.5325-10.3165-3.3612-2.8121-2.8121-3.6774-6.17335-2.5958-10.31663-1.9968-1.08158-4.1267-1.963483-6.3564-2.62907-2.1631 3.69401-6.0568 6.14004-10.0503 6.14004-3.9769 0-7.8872-2.44603-10.0503-6.14004-2.2298.665587-4.3596 1.54749-6.3564 2.62907 1.0816 4.14328.2163 7.48783-2.5958 10.31663-2.8121 2.8121-6.17327 4.4428-10.2999 3.3612-1.09821 1.9967-1.980115 4.1266-2.6457 6.3563 3.694 2.1632 6.15666 5.3081 6.15666 9.285s-2.46266 7.8872-6.15666 10.0503c.665585 2.2298 1.54749 4.3596 2.62906 6.3564 4.14327-1.0816 7.48784-.2163 10.29994 2.5958 2.8287 2.8121 3.6774 6.1733 2.5958 10.3166 2.0134 1.0816 4.1266 1.9635 6.3563 2.6291 2.1632-3.6941 6.0735-6.1401 10.0504-6.1401 3.9768 0 7.8871 2.446 10.0503 6.1401 2.2297-.6656 4.3596-1.5475 6.3563-2.6291-1.0815-4.1433-.2163-7.4879 2.5958-10.3166 2.8121-2.8121 6.1733-4.4428 10.3166-3.3612 1.0816-2.0134 1.9635-4.1433 2.6291-6.3564-3.6774-2.1631-6.1234-5.308-6.1234-9.2849z" fill="#00000030" class="path1"/><path class="path2" d="m24.1606 40.8794c-3.6749-3.675-4.4246-9.1674-2.2491-13.5839l8.058 8.058 5.3841-5.384-8.0581-8.058c4.4165-2.1756 9.9089-1.4259 13.5839 2.2491 3.3505 3.3506 4.2695 8.212 2.7567 12.3913l12.0039 12.0039c1.9562 1.9562 1.9562 5.128 0 7.0842-1.9563 1.9563-5.128 1.9563-7.0843 0l-12.0038-12.0039c-4.1793 1.5128-9.0407.5939-12.3913-2.7567z" stroke="#fff" stroke-linecap="square" stroke-width="2"/><path class="path3" d="m53.0661 32.7601c0 1.2954-.1213 2.5625-.3532 3.7905m-.053-7.8517c-.3069-1.5117-.7817-2.9625-1.4041-4.3319m-1.6699-2.9782c-3.6507-5.3913-9.8244-8.9347-16.8258-8.9347-11.2147 0-20.306 9.0913-20.306 20.306 0 7.118 3.6623 13.3805 9.2054 17.0061.6937.4537 1.4168.8662 2.166 1.2338" stroke="#fff" stroke-linecap="square" stroke-width="2"/></svg>