<svg xmlns="http://www.w3.org/2000/svg" width="32" height="32" viewBox="0 0 32 32"><g fill="currentColor" fill-rule="nonzero" transform="translate(2 2)"><path d="M19.36 0H8.8C3.94 0 0 3.94 0 8.8v10.56c0 4.86 3.94 8.8 8.8 8.8h10.56c4.86 0 8.8-3.94 8.8-8.8V8.8c0-4.86-3.94-8.8-8.8-8.8zm6.16 19.36a6.167 6.167 0 0 1-6.16 6.16H8.8a6.167 6.167 0 0 1-6.16-6.16V8.8A6.167 6.167 0 0 1 8.8 2.64h10.56a6.167 6.167 0 0 1 6.16 6.16v10.56z"/><path d="M14.08 7.04a7.04 7.04 0 1 0 0 14.08 7.04 7.04 0 0 0 0-14.08zm0 11.44a4.406 4.406 0 0 1-4.4-4.4c0-2.427 1.975-4.4 4.4-4.4 2.425 0 4.4 1.973 4.4 4.4 0 2.425-1.975 4.4-4.4 4.4z"/><circle cx="21.12" cy="6.16" r="1"/></g></svg>