<svg fill="none" height="209" viewBox="0 0 188 209" width="188" xmlns="http://www.w3.org/2000/svg"><g fill="currentColor"><path d="m41.3721 145.629h62.4619v62.639h-62.4619z"/><path d="m175.025 78.709v2.6h-118.974v-2.6z"/><path d="m187.834 94.998v2.6h-59.487v-2.6z"/><ellipse cx="88.6031" cy="37.3346" rx="28.2564" ry="28.3365"/><path d="m162.729 23.1357c-.843 0-1.407-.6832-1.407-1.5225v-20.09c0-.84.564-1.5232 1.407-1.5232.844 0 1.407.6832 1.407 1.5232v20.09c0 .8393-.563 1.5225-1.407 1.5225"/><path d="m152.732 13.2812c-.844 0-1.531-.9107-1.531-1.75 0-.8392.687-1.74995 1.531-1.74995h20.191c.843 0 1.53.91075 1.53 1.74995 0 .8393-.687 1.75-1.53 1.75z"/><path clip-rule="evenodd" d="m50.3247 20.8005c0 1.0101.7964 1.8025 1.8115 1.8025.9822 0 1.8123-.826 1.8123-1.8025 0-1.0108-.7964-1.8025-1.8123-1.8025-1.0151 0-1.8115.7917-1.8115 1.8025zm20.4688 5.4131c.2997.1232.5354.1568.6268.1568.7394 0 1.4071-.4585 1.7005-1.1683.3763-.9114-.0465-1.9537-.9463-2.324-.2413-.0973-.4903-.1463-.7387-.1463-.5586 0-1.3275.2821-1.6582 1.0787-.1906.4711-.1941.9744-.0098 1.4168.1864.4459.5515.7966 1.0257.9863zm-37.9407.2541c-.7703 0-1.426-.4179-1.7109-1.0913-.3813-.9226.0577-1.9775.9765-2.3541.2694-.1148.5002-.1673.745-.1673.712 0 1.3634.4424 1.6603 1.1277.2469.595.0675 1.1522-.0211 1.3643-.1077.2562-.3743.7217-.9603.9618-.2596.1085-.5396.1589-.6895.1589zm53.7825 10.2403c.3947.4123.9638.4578 1.1904.4578.4952 0 .9666-.1876 1.2958-.5145.7007-.6979.7014-1.8767.0014-2.5746-.4397-.4368-.9708-.5026-1.2473-.5026-.2948 0-.8625.0721-1.3479.5572-.4144.4116-.5016.8827-.5016 1.2061-.0007.2849.0696.8337.5515 1.3118zm-70.1357.7126c-.4482 0-.9265-.1981-1.2474-.5166-.491-.4781-.567-1.0206-.5691-1.3027-.0014-.28.064-.819.5213-1.274.4601-.4578 1.0089-.5271 1.2959-.5271.2856 0 .8337.0686 1.2924.5264.4622.4599.5311.9898.5311 1.2649-.0007.2758-.0703.805-.5283 1.2593-.3835.3829-.8077.5698-1.2959.5698zm80.6674 14.8729c.3187.7525 1.1017 1.1466 1.7109 1.1466.1456 0 .4369-.0567.6874-.1603.5917-.2415.8577-.7105.9627-.9688.109-.2632.253-.7952 0-1.4049-.335-.812-1.1175-1.1004-1.6846-1.1004-.2293 0-.4643.0427-.6507.1183-.9561.4109-1.4063 1.4511-1.0257 2.3695zm-91.56911 1.3965c-.35458 0-.56563-.056-.6796-.1022-.44322-.182-.78935-.5327-.97508-.9891-.18432-.4536-.18432-.9485 0-1.3937l.10905-.2639c.38693-.5446.94904-.8358 1.53648-.8358.23638 0 .46995.0469.69507.14.59799.2443.86322.7042.96804.9562.10553.252.24623.7658-.00281 1.3664l-.03025.0756c-.27789.7217-1.01447 1.0465-1.6209 1.0465zm95.62811 17.3362c0 1.0101.461 1.8025 1.407 1.8025.947 0 1.407-.7924 1.407-1.8025v-.2505c0-.999-.444-1.7536-1.407-1.7536-.978 0-1.407.7581-1.407 1.8032zm-99.41444 1.9006c-.982113 0-1.81156-.8261-1.81156-1.8032 0-.9766.829447-1.8026 1.81156-1.8026.98211 0 1.81226.826 1.81226 1.8026 0 1.0107-.79638 1.8032-1.81226 1.8032zm96.43744 18.9818c.2497.1022.4861.1569.6831.1569.6092 0 1.3889-.3843 1.7009-1.1208.244-.5922.094-1.1199-.017-1.3817-.112-.266-.392-.7483-.9966-.9969-.2258-.0917-.4601-.1393-.6958-.1393-.7337 0-1.3732.4411-1.6673 1.1466-.2357.5446-.1344 1.0283-.007 1.3364.1076.2645.3813.7455.9997.9988zm-92.55051.2058c-.77035 0-1.42673-.4207-1.71307-1.0976-.24412-.5865-.09778-1.1151.01056-1.3783.10693-.2583.37427-.728.96452-.9694.22372-.0918.4601-.1387.7007-.1387.56915 0 1.35286.2884 1.68915 1.0997.37567.9094-.02744 1.9229-.9392 2.3591-.30744.1049-.55367.1252-.71266.1252zm81.09721 15.7216c.2969.312.7373.499 1.1777.499.2849 0 .8238-.067 1.241-.503l.0605-.061c.6986-.695.7007-1.828.0028-2.525-.4636-.459-.999-.527-1.2769-.527-.2764 0-.809.068-1.2684.525-.4615.46-.5312.992-.5312 1.267.0014.275.0704.803.5263 1.255zm-70.1435.553c-.4805 0-.923-.181-1.3155-.536-.4447-.467-.5094-.979-.5094-1.244 0-.275.0683-.805.5277-1.26.3658-.375.8174-.574 1.3015-.574.4854 0 .9532.195 1.317.549.6676.663.6718 1.813.0105 2.513-.4116.371-.8541.552-1.3318.552zm53.3231 9.737c.3363.82 1.0722 1.112 1.6477 1.112.1984 0 .4537-.057.7731-.176.8646-.38 1.2889-1.419.9371-2.337-.3102-.657-.9849-1.098-1.6786-1.098-.2265 0-.4509.047-.6662.139l-.3813.168c-.6958.505-.9561 1.407-.6318 2.192zm-36.9698 1.161c-.0415 0-.2709-.008-.7084-.17-.9041-.396-1.3198-1.455-.942-2.37.3144-.759 1.063-1.099 1.6645-1.099.2244 0 .4439.045.6514.131.484.196.8414.538 1.0307.988.1097.26.2568.788.0049 1.4-.2884.68-.9554 1.12-1.7011 1.12zm17.5218 1.964c0 .977.8301 1.803 1.8116 1.803.9821 0 1.8115-.826 1.8115-1.803 0-1.011-.7964-1.802-1.8115-1.802-.9815 0-1.8116.825-1.8116 1.802z" fill-rule="evenodd"/></g><path clip-rule="evenodd" d="m87.5469 124.199h71.6001v71.6h-71.6001z" fill-rule="evenodd" stroke="currentColor" stroke-width="2.4"/></svg>