<svg fill="none" height="32" viewBox="0 0 32 32" width="32" xmlns="http://www.w3.org/2000/svg"><path d="m30.539 6.90833c-.6442.29584-1.3133.52917-1.999.69792.7636-.75408 1.3288-1.68728 1.6448-2.71563.0911-.29687-.2196-.55312-.4785-.39374-.9496.58448-1.9794 1.02531-3.0566 1.30833-.127.03098-.2596.03008-.3863-.00261-.1266-.0327-.2432-.09619-.3397-.18489-1.1308-1.0388-2.6064-1.61569-4.1379-1.61771-.6597 0-1.3257.10625-1.9803.31667-2.027.65208-3.592 2.38541-4.0819 4.52291-.1831.781-.2335 1.58752-.1492 2.38542.0039.0345.0002.0695-.0109.1024-.011.0329-.0292.063-.0531.088-.0239.0251-.0531.0446-.0853.057-.0323.0125-.0669.0176-.1013.0151-4.4382-.4271-8.43934-2.64271-11.26902-6.23958-.03272-.04233-.0754-.0758-.12419-.09739-.0488-.0216-.10217-.03063-.15531-.02629-.05313.00435-.10436.02192-.14905.05115s-.08144.06919-.10693.11628c-.55643.99467-.84791 2.11705-.84621 3.25833 0 1.7562.68152 3.4115 1.86435 4.6187-.49969-.123-.97978-.3158-1.42623-.5729-.21751-.125-.48266.0354-.4868.2917-.03108 2.6104 1.44384 4.9323 3.6531 5.9781-.39822.0095-.79627-.0251-1.18697-.1031-.24444-.0479-.44849.1917-.37288.4365.71675 2.3197 2.64325 4.0291 4.94987 4.4166-1.89681 1.3269-4.15256 2.0369-6.4631 2.0344h-.72192c-.10837.0001-.21354.037-.29849.1047-.08496.0676-.14473.1621-.16967.2682-.02577.1077-.01666.2209.026.323.04267.1021.11666.1879.21119.2447 2.60422 1.5737 5.58451 2.4064 8.62266 2.4094 2.6505 0 5.1301-.5448 7.3694-1.6198 2.0698-.999 3.9068-2.4259 5.3911-4.1875 1.4348-1.6945 2.5534-3.6357 3.3019-5.7302.7344-2.0323 1.1218-4.201 1.1218-6.2708v-.099c0-.3333.145-.6458.3987-.8583.9643-.81269 1.8022-1.76596 2.4858-2.82815.1823-.28125-.1046-.63542-.4039-.49792z" fill="currentColor"/></svg>