<svg fill="none" height="147" viewBox="0 0 177 147" width="177" xmlns="http://www.w3.org/2000/svg"><g fill="currentColor"><ellipse cx="62.1026" cy="100.536" rx="46.1026" ry="46.2333"/><path clip-rule="evenodd" d="m122.325 1.8025c0 1.0101.796 1.8025 1.811 1.8025.982 0 1.813-.826 1.813-1.8025 0-1.0108-.797-1.8025-1.813-1.8025-1.015 0-1.811.7917-1.811 1.8025zm20.469 5.4131c.299.1232.535.1568.626.1568.74 0 1.407-.4585 1.701-1.1683.376-.9114-.047-1.9537-.946-2.324-.242-.0973-.491-.1463-.739-.1463-.559 0-1.328.2821-1.658 1.0787-.191.4711-.195.9744-.01 1.4168.186.4459.551.7966 1.026.9863zm-37.941.2541c-.771 0-1.426-.4179-1.711-1.0913-.381-.9226.058-1.9775.976-2.3541.27-.1148.501-.1673.745-.1673.712 0 1.364.4424 1.661 1.1277.247.595.067 1.1522-.021 1.3643-.108.2562-.375.7217-.961.9618-.259.1085-.539.1589-.689.1589zm53.782 10.2403c.395.4123.964.4578 1.191.4578.495 0 .966-.1876 1.296-.5145.7-.6979.701-1.8767.001-2.5746-.44-.4368-.971-.5026-1.247-.5026-.295 0-.863.0721-1.348.5572-.415.4116-.502.8827-.502 1.2061-.001.2849.07.8337.552 1.3118zm-70.1354.7126c-.4482 0-.9265-.1981-1.2473-.5166-.4911-.4781-.5671-1.0206-.5692-1.3027-.0014-.28.064-.819.5213-1.274.4601-.4578 1.0089-.5271 1.2959-.5271.2856 0 .8337.0686 1.2924.5264.4622.4599.5311.9898.5311 1.2649-.0007.2758-.0703.805-.5283 1.2593-.3835.3829-.8077.5698-1.2959.5698zm80.6674 14.8729c.319.7525 1.102 1.1466 1.711 1.1466.146 0 .437-.0567.687-.1603.592-.2415.858-.7105.963-.9688.109-.2632.253-.7952 0-1.4049-.335-.812-1.118-1.1004-1.685-1.1004-.229 0-.464.0427-.65.1183-.956.4109-1.407 1.4511-1.026 2.3695zm-91.5691 1.3965c-.3546 0-.5656-.056-.6796-.1022-.4432-.182-.7894-.5327-.9751-.9891-.1843-.4536-.1843-.9485 0-1.3937l.1091-.2639c.3869-.5446.949-.8358 1.5364-.8358.2364 0 .47.0469.6951.14.598.2443.8632.7042.9681.9562.1055.252.2462.7658-.0029 1.3664l-.0302.0756c-.2779.7217-1.0145 1.0465-1.6209 1.0465zm95.6281 17.3362c0 1.0101.461 1.8025 1.407 1.8025.947 0 1.407-.7924 1.407-1.8025v-.2506c0-.9989-.444-1.7535-1.407-1.7535-.978 0-1.407.7581-1.407 1.8032zm-99.4144 1.9005c-.9822 0-1.8116-.826-1.8116-1.8032 0-.9765.8294-1.8025 1.8116-1.8025.9821 0 1.8122.826 1.8122 1.8025 0 1.0108-.7964 1.8032-1.8122 1.8032zm96.4374 18.9819c.25.1022.486.1568.683.1568.609 0 1.389-.3843 1.701-1.1207.244-.5922.094-1.12-.017-1.3818-.112-.266-.392-.7483-.997-.9968-.225-.0917-.46-.1393-.695-.1393-.734 0-1.374.441-1.668 1.1466-.235.5446-.134 1.0283-.007 1.3363.108.2646.382.7455 1 .9989zm-92.5505.2058c-.7704 0-1.4267-.4207-1.7131-1.0976-.2441-.5866-.0978-1.1151.0106-1.3783.1069-.2583.3742-.728.9645-.9695.2237-.0917.4601-.1386.7007-.1386.5691 0 1.3529.2884 1.6891 1.0997.3757.9093-.0274 1.9229-.9392 2.359-.3074.105-.5536.1253-.7126.1253zm81.0975 15.7213c.297.3122.737.4991 1.177.4991.285 0 .824-.0665 1.241-.5026l.061-.0609c.699-.6958.701-1.8284.003-2.5249-.464-.4592-.999-.5278-1.277-.5278-.277 0-.809.0679-1.269.525-.461.4599-.531.9919-.531 1.2677.002.2751.071.8029.526 1.2551zm-70.1438.553c-.4805 0-.923-.1806-1.3155-.5355-.4447-.4669-.5094-.9793-.5094-1.2446 0-.2751.0683-.805.5277-1.26.3658-.3745.8174-.574 1.3015-.574.4854 0 .9532.1953 1.317.5495.6676.6629.6718 1.813.0105 2.513-.4116.371-.8541.5516-1.3318.5516zm53.3228 9.7377c.337.8197 1.072 1.1116 1.648 1.1116.198 0 .454-.057.773-.176.865-.3805 1.289-1.4193.937-2.337-.31-.6566-.985-1.0976-1.678-1.0976-.227 0-.451.0469-.667.1386l-.381.168c-.696.5054-.956 1.407-.632 2.1924zm-36.969 1.1606c-.042 0-.271-.008-.709-.17-.904-.3956-1.32-1.4554-.942-2.3703.315-.7588 1.063-1.0983 1.665-1.0983.224 0 .443.0441.651.1302.484.196.841.5383 1.031.9884.109.2597.256.7882.005 1.4-.289.6804-.956 1.12-1.701 1.12zm17.521 1.964c0 .977.83 1.803 1.812 1.803s1.811-.826 1.811-1.803c0-1.011-.796-1.802-1.811-1.802-.982 0-1.812.825-1.812 1.802z" fill-rule="evenodd"/><path d="m156.383 146.138c-.844 0-1.407-.684-1.407-1.523v-20.09c0-.84.563-1.523 1.407-1.523.843 0 1.407.683 1.407 1.523v20.09c0 .839-.564 1.523-1.407 1.523"/><path d="m146.385 136.283c-.844 0-1.531-.91-1.531-1.75 0-.839.687-1.75 1.531-1.75h20.191c.844 0 1.53.911 1.53 1.75 0 .84-.686 1.75-1.53 1.75z"/></g><circle cx="25" cy="61" r="23" stroke="currentColor" stroke-width="2.4"/></svg>