<svg fill="none" height="286" viewBox="0 0 540 286" width="540" xmlns="http://www.w3.org/2000/svg"><path d="m141.686 226.204c-.543.193-1.081.067-1.611-.378-.531-.444-.835-.855-.912-1.233-.114-.5-.183-1.247-.208-2.24s-.023-2.011.004-3.053c.028-1.042.083-1.875.167-2.5-.022-.527-.04-.989-.057-1.384.006-.435.006-.719.001-.851.056-.15.099-.513.13-1.089.062-.585.082-1.141.061-1.668-.011-.264-.023-.76-.037-1.49.007-.769.014-1.655.02-2.657.036-1.012.062-2.003.077-2.975.046-.98.077-1.84.093-2.578.017-.739.025-1.225.023-1.458.137-.44.218-.847.242-1.221.023-.374.032-.627.027-.759.148-.177.211-.362.187-.555-.032-.224-.066-.397-.103-.52-.045-.154-.035-.29.03-.409.096-.128.126-.254.09-.376.096-.129.168-.167.217-.114.049.052.127-.021.236-.219l-.23-1.634 4.086-1.249c.046.386.089.874.129 1.462.03.558-.054 1.35-.253 2.376.027.659.005 1.266-.066 1.82-.04.545-.022.89.054 1.035-.044.079-.092.427-.144 1.043-.022.607-.054 1.35-.096 2.229-.012.87-.038 1.745-.08 2.625-.011.87-.034 1.644-.069 2.321-.013.638-.028 1.042-.044 1.214-.101.563-.166 1.366-.193 2.408-.028 1.042-.11 2.467-.246 4.274-.102.564-.192 1.391-.272 2.481-.05 1.082-.065 2.054-.045 2.915.014 1.297-.041 2.246-.164 2.849-.092.595-.233.969-.42 1.124-.179.186-.387.331-.624.434zm-7.536-27.203c-1.223.492-2.128.591-2.714.297-.556-.304-.845-.72-.866-1.247-.017-.395.108-.766.374-1.11.287-.385.88-.809 1.777-1.273.32-.16.727-.363 1.222-.609.526-.254 1.021-.499 1.485-.736.977-.42 1.775-.771 2.393-1.052.648-.291 1.316-.57 2.004-.839.689-.269 1.561-.592 2.618-.968.872-.323 1.611-.59 2.216-.801.627-.251.94-.376.94-.376.092-.027.423-.091.994-.192s1.192-.2 1.864-.297 1.179-.13 1.522-.097c.752-.054 1.401.056 1.948.329s.958.652 1.235 1.138c.2.342.285.633.256.875-.038.211-.161.415-.371.609-.643.423-1.172.778-1.588 1.067-.394.249-.828.36-1.303.333-.199-.109-.423-.193-.674-.253-.221-.068-.585-.061-1.095.021-.487.044-1.247.183-2.278.419-.833.345-1.571.612-2.216.801s-.945.361-.9.514l-2.676.936-2.19.893c-.298.121-.714.293-1.249.517-.543.193-1.067.396-1.571.611-.513.184-.899.347-1.157.49zm18.15 20.084c-.34-.133-.728-.319-1.165-.558-.406-.248-.653-.692-.741-1.333-.161-.887-.259-1.675-.295-2.365-.044-.721-.086-1.542-.123-2.465-.047-.387-.078-1.061-.094-2.024.015-.971.054-2.033.115-3.185.062-1.152.158-2.247.287-3.286.119-1.069.265-1.879.437-2.429.247-.407.694-.704 1.338-.894.676-.198 1.172-.21 1.49-.037.419.177.671.637.755 1.379.076.712-.043 1.897-.356 3.557-.046.413-.128.871-.247 1.373-.098.462-.153.845-.163 1.148-.02.273.042.372.186.296.085-.392.31-.875.675-1.449.357-.605.748-1.203 1.174-1.795.427-.593.836-1.13 1.228-1.612s.667-.796.824-.942c.201-.225.441-.429.721-.612.302-.222.505-.381.61-.479.607-.545 1.338-.893 2.194-1.044.878-.191 1.477-.084 1.796.323.103.236.249.394.439.471.22.069.33.104.33.104.123-.037.198-.009.225.084.058.083.086.124.086.124.064.215-.061.585-.374 1.111-.282.516-.664.862-1.146 1.037-.39.147-.721.328-.992.541s-.594.475-.97.785c-.969 1.018-1.852 1.928-2.651 2.729-.767.793-1.485 1.87-2.152 3.233-.143.309-.305.607-.488.894-.182.287-.338.666-.466 1.138-.109.198-.163.581-.164 1.148 0 .567.011 1.114.032 1.642.043.487.078.777.105.869 0 0-.001.167-.003.501-.011.304-.083.625-.217.964-.224.6-.502 1.015-.835 1.246-.301.222-.77.16-1.405-.188zm17.212 9.154c-.639.322-1.095.472-1.368.452s-.655-.074-1.148-.163c-.41-.146-.71-.259-.9-.336-.189-.078-.333-.169-.43-.274-.496-.555-.682-1.017-.557-1.387.124-.37.373-.66.745-.869.412-.188.771-.327 1.078-.417.251.06.622.017 1.114-.127.522-.153.826-.309.913-.468 0 0 .111-.133.333-.398.262-.244.625-.484 1.089-.72.817-.74 1.429-1.437 1.838-2.09.417-.623.797-1.602 1.139-2.936.15-.511.293-1.103.429-1.777.145-.643.197-1.259.158-1.847.065-.686.098-1.597.099-2.731.031-1.143.021-2.257-.031-3.342-.061-1.116-.153-1.94-.275-2.471-.321-1.773-.455-3.535-.401-5.285.044-1.781-.046-3.622-.271-5.523.058-.484.124-.77.198-.859.065-.119.251-.224.558-.314.338-.099.769-.109 1.292-.029.515.049.929.211 1.243.485.479.494.82 1.144 1.023 1.951.226.768.224 1.502-.004 2.203-.18.52-.258 1.276-.234 2.269.047.954.161 2.138.343 3.552.045.72.11 1.568.196 2.543.108.936.232 1.983.373 3.143-.033.343-.062.868-.088 1.576-.035.677-.028 1.209.018 1.596.006.132-.014.404-.06.818-.045.413-.095.811-.149 1.194-.046.414-.081.691-.106.832-.6 3.411-1.673 6.06-3.219 7.949-1.517 1.879-3.162 3.146-4.938 3.8zm.042-14.169c-.337.099-.745.018-1.221-.242-.446-.269-.762-.493-.948-.672-.213-.271-.529-.495-.948-.672-.419-.178-.809-.43-1.172-.757s-.569-.8-.617-1.419c.005-.436.014-1.089.025-1.959.002-.901.028-1.892.077-2.974.041-1.113.085-2.21.135-3.291.08-1.091.161-2.065.242-2.923.082-.858.185-1.472.31-1.842.112-.3.35-.569.713-.809s.753-.388 1.17-.444.763.043 1.037.296c.464.33.775.706.932 1.127.178.381.153 1.089-.077 2.124-.024.373-.069.787-.136 1.24-.076.423-.096.695-.06.818-.013.071-.011.304.005.699.038.356.056.701.054 1.035s-.049.515-.142.542c-.086.158-.13.521-.13 1.088.03.559.079 1.178.145 1.859.088.641.189 1.212.303 1.712.104.469.218.686.341.65.952-.279 1.787-.841 2.506-1.686.71-.876 1.38-2.173 2.009-3.892l1.686 4.208c-.367.341-.698.688-.995 1.042-.305.323-.566.683-.783 1.081-.056.15-.221.381-.496.696-.275.314-.554.612-.838.896-.262.243-.439.379-.531.406 0 0-.041.029-.124.086-.062.018-.074.089-.038.212.018.061-.146.243-.491.544-.354.271-.728.531-1.122.78s-.667.396-.821.441zm22.966-6.293c-.318-.173-.61-.488-.877-.943-.236-.464-.407-.931-.511-1.4-.114-.501-.145-.892-.095-1.173-.072-.246-.095-.439-.07-.58.047-.181.037-.328-.029-.442-.067-.113-.099-.337-.097-.671.002-.335.008-.653.019-.957.071-.554.131-1.256.182-2.104.042-.88.084-1.759.126-2.639.033-.91.056-1.684.069-2.321.004-.668.003-1.068-.002-1.2-.108-.369.079-.64.561-.815.333-.231.823-.208 1.471.068.648.277 1.198.616 1.649 1.017.318.173.505.469.56.886.056.417.023 1.044-.098 1.88-.051.281-.082.741-.095 1.379.008.597.036 1.089.083 1.476-.051.282-.101.68-.15 1.194-.027.475-.044.93-.049 1.366-.016.171.008.481.073.929.055.417.1.854.134 1.311s.011.831-.071 1.121c.094 1.34-.181 2.221-.824 2.644-.613.413-1.266.404-1.959-.026zm-.448-19.929c-.41-.146-.756-.361-1.04-.645-.262-.323-.448-.618-.56-.886-.081-.276-.1-.454-.057-.533.208-.428.338-.95.391-1.566.083-.625.196-1.208.337-1.75.034-.11.075-.255.122-.436.069-.22.16-.363.274-.43.296-.354.807-.487 1.533-.4.757.078 1.361.317 1.812.718.448.503.7 1.079.758 1.729.088.641-.045 1.38-.4 2.218-.28.749-.746 1.32-1.398 1.711-.661.361-1.252.451-1.772.27zm13.8 19.861c-1.514.411-2.607.266-3.28-.437-.634-.681-1.039-1.663-1.215-2.945.013-.638-.033-1.191-.138-1.661-.082-.509-.034-.857.144-1.043 0 0 .002-.05.006-.151.034-.111-.008-.198-.127-.263-.117-.399-.142-.993-.073-1.78.008-.202.021-.44.041-.712.042-.313.063-.469.063-.469-.226-.2-.284-.4-.176-.599.109-.198.222-.381.339-.549.139-.208.105-.381-.103-.52-.097-.105-.101-.404-.013-.897.08-.524.186-1.072.318-1.644.132-.573.204-1.01.215-1.314-.018-.061-.005-.299.041-.712.045-.414.103-.898.174-1.452.07-.554.139-1.058.206-1.511.098-.463.16-.764.185-.905.262-.244.107-.315-.463-.214-.571.101-1.159.256-1.764.467-.961.249-1.742.428-2.343.538-.571.101-1.072.098-1.504-.009-.494-.321-.689-.814-.584-1.479.096-.695.447-1.148 1.052-1.359.39-.148.692-.253.907-.317.246-.072.548-.177.908-.316.381-.179.973-.436 1.774-.771l2.295-.874-.091-.824c.128-.471.22-.781.276-.931s.082-.291.076-.423c-.014-.162-.045-.437-.091-.823 0 0 .066-.287.198-.859.123-.603.134-1.19.033-1.761.188-.722.348-1.369.481-1.942.123-.603.197-.975.222-1.116.297-.92.682-1.484 1.155-1.689.504-.215 1.031-.236 1.582-.064.321.072.641.195.959.368.308.143.548.39.717.74.161.32.153.806-.022 1.458-.026.14-.05.398-.074.772-.032.343-.048.631-.046.864-.121.269-.248.689-.38 1.262-.11.532-.14 1.058-.087 1.576-.093.594-.152.962-.177 1.103-.025.14-.099.229-.222.265.151.289.381.388.688.298.298-.121.795-.3 1.492-.538.566-.233.947-.411 1.144-.536.218-.164.504-.215.856-.151.216.17.388.47.514.899.148.391.219.803.213 1.238-.014.405-.115.685-.303.84-.154.045-.449.232-.886.56-.416.289-.972.552-1.669.79l-2.374.947-.323 1.796c-.098.462-.174.885-.228 1.268-.064.352-.117.568-.16.647.054.184.027.492-.079.924-.076.422-.159.88-.247 1.373-.031.576-.107 1.115-.226 1.617-.089.493-.133.739-.133.739-.123.037-.157.147-.103.331.261.323.297.613.105.869-.126.138-.224.316-.293.537-.047.18-.07.271-.07.271.158.086.219.235.181.447-.007.202-.041.428-.101.679.072.246.099.622.081 1.127.012.497 0 .967-.036 1.412.193.543.327.887.403 1.032.076.144.171.183.285.116.162-.014.377-.077.644-.189.268-.112.463-.186.586-.222.397-.35.498.788.301 3.414-.266.911-.572 1.685-.919 2.321-.338.666-.584 1.021-.737 1.066zm23.823-10.396c-.608.312-1.109.426-1.5.341-.371-.125-.77-.291-1.197-.499-.564-.102-1.108-.309-1.634-.621-.534-.344-.981-.729-1.34-1.158-.359-.428-.564-.785-.614-1.07-.224-1.102-.321-2.34-.291-3.716.06-1.386.237-2.771.53-4.158.324-1.396.765-2.676 1.324-3.841.58-1.204 1.299-2.165 2.155-2.884.542-.425 1.175-.711 1.899-.857s1.286.006 1.685.456c.722.755.781 1.354.178 1.798-.092.027-.186.105-.282.233-.105.098-.139.208-.103.331.141.025.483-.059 1.027-.252.534-.223 1.06-.478 1.576-.763.539-.325.878-.591 1.017-.799.157-.146.281-.232.374-.259.092-.027.331-.064.717-.111.568 0 .883.108.946.323.036.122.14.309.314.558.164.218.307.31.43.274.224-.033.333.169.328.604.025.426-.207.944-.695 1.554-.475.54-.771.894-.889 1.062-.095.128-.048.347.144.658.417.511.609 1.222.576 2.132s-.241 1.905-.625 2.985c-.383 1.08-.903 2.149-1.559 3.209-.634 1.02-1.346 1.946-2.136 2.778-.768.793-1.553 1.357-2.355 1.692zm-.997-3.909c.123-.036.32-.161.59-.374.262-.243.472-.438.629-.584.087-.159.2-.343.339-.55.161-.247.298-.404.412-.471.123-.036.186-.105.19-.206-.006-.132.034-.394.119-.786.076-.422.287-1.068.632-1.936.416-.856.658-1.51.725-1.964.058-.483-.062-.949-.36-1.395-.067-.114-.181-.163-.344-.149-.132.005-.323-.022-.574-.081-.307.09-.5.23-.577.419-.056.15-.294.136-.713-.041l-1.007-.705-.553 1.013c-.347.636-.612 1.381-.795 2.235-.152.845-.223 1.683-.212 2.513.01.831.07 1.547.18 2.148.105.47.271.755.501.854.229.099.502.119.818.06zm15.292-1.638c-.736-.351-1.401-.74-1.993-1.166-.601-.457-1.154-1.262-1.659-2.414-.224-.535-.388-1.321-.492-2.357-.104-1.037-.13-2.147-.077-3.329.044-1.214.146-2.344.305-3.392.159-1.047.391-1.849.695-2.405.233-.569.585-1.072 1.057-1.511.502-.447 1.101-.623 1.796-.527.455.3.786.803.993 1.509.229.667.245 1.346.048 2.037-.371 1.009-.601 2.211-.692 3.605-.07 1.355-.037 2.546.098 3.573-.007.77.063 1.349.211 1.739.138.36.421.527.847.502.629-.018 1.178-.363 1.648-1.034.5-.681.902-1.582 1.206-2.706.335-1.132.552-2.379.652-3.743.058-.484.048-1.031-.031-1.641-.049-.62-.052-1.086-.011-1.398-.026-.659.095-1.212.364-1.658.291-.485.638-.837 1.041-1.056.403-.218.739-.267 1.008-.145.312.041.662.155 1.051.341.388.187.655.642.801 1.366.333 1.136.372 2.175.115 3.118-.257.942-.424 1.908-.5 2.898-.087.726-.312 1.609-.673 2.649-.362 1.04-.792 2.017-1.291 2.93-.468.905-.958 1.565-1.469 1.982-.698.805-1.474 1.4-2.328 1.784-.863.354-1.77.503-2.72.449zm16.704-3.104c-.356.038-.783-.053-1.281-.274-.507-.251-.993-.542-1.457-.873-.442-.37-.754-.695-.937-.975-.018-.062-.086-.125-.205-.19-.089-.074-.133-.111-.133-.111-.15-.056-.344-.433-.582-1.13-.216-.737-.409-1.564-.578-2.482-.17-.917-.27-1.655-.3-2.213.009-.536.046-1.264.109-2.183.055-.95.091-1.794.107-2.533l.459-3.036-1.99.034c-.233.002-.454-.067-.661-.206-.177-.148-.284-.284-.32-.406-.072-.246-.037-.64.104-1.181.141-.542.273-.831.396-.867.162-.014.443-.08.842-.197.43-.127.84-.264 1.23-.411.39-.148.627-.251.71-.309.105-.097.205-.21.301-.338.087-.159.129-.355.127-.588.055-.383.116-.685.185-.905s.157-.546.263-.978c.098-.462.168-.849.209-1.162.073-.321.19-.772.353-1.354.091-.26.183-.57.277-.931.094-.362.248-.69.461-.986.204-.327.6-.627 1.187-.899.609-.312 1.202-.336 1.78-.072.335.235.559.486.671.753s.093.657-.057 1.168c-.093.594-.245 1.155-.456 1.684-.19.49-.347 1.036-.47 1.639-.293.82-.272 1.23.062 1.232s1.176-.311 2.525-.941c.845-.415 1.517-.512 2.015-.292.499.221.855.583 1.07 1.087.308.71.362 1.178.162 1.403-.201.226-.884.51-2.051.853-.701.339-1.308.6-1.821.784-.522.154-.906.266-1.151.338-.39.148-.647.24-.77.276s-.298.121-.525.255c-.228.133-.381.295-.458.484-.056.15-.11.366-.161.648-.086.158-.176.535-.268 1.129-.093.594-.233 1.252-.421 1.975-.051 1.415-.055 2.767-.01 4.055.066 1.247.163 2.486.291 3.716.079.611.22 1.036.424 1.276.226.201.67.237 1.333.109.347-.068.838-.212 1.474-.432.627-.251 1.137-.501 1.531-.75.292-.253.6-.51.924-.772.314-.292.598-.575.851-.85.231-.234.462-.469.693-.704.223-.265.334-.398.334-.398.081-.29.31-.307.685-.051.397.217.711.492.942.824.109.369.163.836.162 1.403-.009.537-.424 1.225-1.244 2.067-1.129 1.265-2.358 2.193-3.685 2.782-1.328.59-2.413.926-3.257 1.006z" fill="white"/><g stroke="white" stroke-linecap="round" stroke-width="2"><path d="m23 285c90-55.5 248-87.1 350-113.5"/><path d="m218 223c46.5 30.833 282.5 4.5 315.5-221m0 0 5 12m-5-12-7.5 8.5"/></g></svg>