<svg fill="none" height="146" viewBox="0 0 175 146" width="175" xmlns="http://www.w3.org/2000/svg"><g fill="currentColor"><path clip-rule="evenodd" d="m93.5611 86.976h-25.4205v-25.4115h25.4205zm-2.0895-2.0889h-21.2414v-21.2338h21.2414z" fill-rule="evenodd"/><path d="m52.3125 20.9576h11.4498v-11.44393h-11.4498z"/><path d="m28.7031 71.1111h11.446v-11.4431h-11.446z"/><path clip-rule="evenodd" d="m39.8989 39.8811h-39.8989v-39.8811h39.8989zm-2.0895-2.0891h-35.71974v-35.7033h35.71974z" fill-rule="evenodd"/><path d="m1.41406 36.9907 35.59274-35.57664 1.4771 1.47647-35.59273 35.57677z"/><path d="m1.41406 2.89076 1.47711-1.4767 35.59273 35.57674-1.4771 1.4766z"/><path d="m112.707 88.171h2.09v-2.089h-2.09z"/><path clip-rule="evenodd" d="m122.876 88.171h1.812v-2.089h-1.812zm9.891 0h1.811v-2.089h-1.811zm11.702 0h-1.811v-2.089h1.811z" fill-rule="evenodd"/><path d="m152.55 88.171h2.089v-2.089h-2.089z"/><path clip-rule="evenodd" d="m152.55 98.059h2.089v-1.811h-2.089zm0 9.887h2.089v-1.811h-2.089zm2.089 9.888h-2.089v-1.811h2.089z" fill-rule="evenodd"/><path d="m152.55 127.999h2.089v-2.089h-2.089z"/><path clip-rule="evenodd" d="m122.876 127.999h1.812v-2.089h-1.812zm9.891 0h1.811v-2.089h-1.811zm11.702 0h-1.811v-2.089h1.811z" fill-rule="evenodd"/><path d="m112.707 127.999h2.09v-2.089h-2.09z"/><path clip-rule="evenodd" d="m112.707 98.059h2.09v-1.811h-2.09zm0 9.887h2.09v-1.811h-2.09zm2.09 9.888h-2.09v-1.811h2.09z" fill-rule="evenodd"/><path d="m139.501 104.527 17.687 10.202 17.688 10.209-17.688 10.214-17.687 10.206z"/></g></svg>