<svg width="418" height="330" viewBox="0 0 418 330" fill="none" xmlns="http://www.w3.org/2000/svg"> <defs> <mask id="hole"> <rect width="100%" height="100%" fill="white"/> <path fill-rule="evenodd" clip-rule="evenodd" d="M153.201 184.682C153.201 202.355 138.875 216.682 121.201 216.682C103.527 216.682 89.2012 202.355 89.2012 184.682C89.2012 167.008 103.527 152.682 121.201 152.682C138.875 152.682 153.201 167.008 153.201 184.682ZM328.135 184.682C328.135 202.355 313.809 216.682 296.135 216.682C278.461 216.682 264.135 202.355 264.135 184.682C264.135 167.008 278.461 152.682 296.135 152.682C313.809 152.682 328.135 167.008 328.135 184.682Z" fill="black" class="eyes"/> </mask> </defs> <path fill-rule="evenodd" clip-rule="evenodd" d="M417.333 0.875V330.001H0V0.875L145.817 49.4807H271.516L417.333 0.875Z" fill="white" mask="url(#hole)"/></svg>